<svg width="53" height="53" viewBox="0 0 53 53" fill="none" xmlns="http://www.w3.org/2000/svg">
<circle cx="26.2565" cy="26.6962" r="25.881" fill="#3485FF"/>
<path d="M34.22 35.6549V33.6641C34.22 32.6081 33.8005 31.5953 33.0538 30.8486C32.3071 30.1019 31.2943 29.6824 30.2383 29.6824H22.2749C21.2189 29.6824 20.2061 30.1019 19.4594 30.8486C18.7127 31.5953 18.2932 32.6081 18.2932 33.6641V35.6549" stroke="#FAFAFA" stroke-width="1.99085" stroke-linecap="round" stroke-linejoin="round"/>
<path d="M26.2566 25.7007C28.4556 25.7007 30.2383 23.918 30.2383 21.719C30.2383 19.52 28.4556 17.7373 26.2566 17.7373C24.0576 17.7373 22.2749 19.52 22.2749 21.719C22.2749 23.918 24.0576 25.7007 26.2566 25.7007Z" stroke="#FAFAFA" stroke-width="1.99085" stroke-linecap="round" stroke-linejoin="round"/>
</svg>
