<svg width="167" height="45" viewBox="0 0 167 45" fill="none" xmlns="http://www.w3.org/2000/svg">
<path d="M56.6718 30.8398V15.6284H61.5004V18.8158C61.7528 17.7218 62.2683 16.8802 63.0467 16.2911C63.8462 15.681 64.7299 15.3759 65.6977 15.3759C66.2027 15.3759 66.6234 15.418 66.9601 15.5021V19.9835C66.392 19.9204 65.9081 19.8889 65.5084 19.8889C62.8364 19.8889 61.5004 21.5825 61.5004 24.9699V30.8398H56.6718ZM80.9494 29.041C79.4345 30.5558 77.3937 31.3132 74.8269 31.3132C72.2601 31.3132 70.2088 30.5558 68.6729 29.041C67.137 27.5261 66.3691 25.5905 66.3691 23.2341C66.3691 20.8777 67.137 18.9526 68.6729 17.4588C70.2088 15.944 72.2601 15.1866 74.8269 15.1866C77.3937 15.1866 79.4345 15.944 80.9494 17.4588C82.4852 18.9526 83.2532 20.8777 83.2532 23.2341C83.2532 25.5905 82.4852 27.5261 80.9494 29.041ZM74.8269 27.2106C75.942 27.2106 76.8256 26.8424 77.4779 26.106C78.1301 25.3696 78.4562 24.4123 78.4562 23.2341C78.4562 22.0559 78.1301 21.0986 77.4779 20.3622C76.8256 19.6259 75.942 19.2577 74.8269 19.2577C73.6908 19.2577 72.7966 19.6259 72.1444 20.3622C71.5132 21.0986 71.1976 22.0559 71.1976 23.2341C71.1976 24.4123 71.5132 25.3696 72.1444 26.106C72.7966 26.8424 73.6908 27.2106 74.8269 27.2106ZM91.6025 31.3132C89.1199 31.3132 87.1422 30.5769 85.6694 29.1041C84.1967 27.6103 83.4603 25.6536 83.4603 23.2341C83.4603 20.8146 84.1967 18.8684 85.6694 17.3957C87.1422 15.9229 89.1199 15.1866 91.6025 15.1866C93.8537 15.1866 95.6842 15.7441 97.0938 16.8592C98.5034 17.9743 99.3029 19.4891 99.4923 21.4037H94.6637C94.3061 19.973 93.2962 19.2577 91.6341 19.2577C90.5821 19.2577 89.7616 19.6048 89.1725 20.2991C88.5834 20.9934 88.2888 21.9717 88.2888 23.2341C88.2888 24.4965 88.5834 25.4748 89.1725 26.1691C89.7616 26.8634 90.5821 27.2106 91.6341 27.2106C93.2962 27.2106 94.3061 26.5373 94.6637 25.1908H99.4923C99.3029 27.0633 98.5034 28.5571 97.0938 29.6722C95.6842 30.7662 93.8537 31.3132 91.6025 31.3132ZM115.922 30.8398H110.021L105.192 24.244V30.8398H100.364V8.7485H105.192V21.9717L110.147 15.6284H115.828L109.768 22.8238L115.922 30.8398ZM129.948 22.4451C129.948 23.0763 129.906 23.7811 129.822 24.5596H118.587C118.629 25.5484 118.966 26.3164 119.597 26.8634C120.228 27.4104 121.08 27.6839 122.153 27.6839C123.626 27.6839 124.573 27.2106 124.994 26.2638H129.728C129.496 27.7576 128.676 28.9779 127.266 29.9246C125.877 30.8504 124.173 31.3132 122.153 31.3132C119.566 31.3132 117.525 30.5979 116.031 29.1672C114.537 27.7365 113.79 25.7588 113.79 23.2341C113.79 20.7515 114.537 18.7948 116.031 17.3641C117.525 15.9124 119.513 15.1866 121.996 15.1866C124.352 15.1866 126.267 15.8598 127.739 17.2063C129.212 18.5529 129.948 20.2991 129.948 22.4451ZM118.587 21.5615H125.183C125.162 20.5516 124.878 19.7731 124.331 19.2261C123.784 18.6791 122.995 18.4056 121.964 18.4056C120.933 18.4056 120.113 18.7001 119.502 19.2892C118.913 19.8573 118.608 20.6147 118.587 21.5615ZM138.74 27.0843C139.413 27.0843 139.971 27.0528 140.413 26.9896V30.8398C139.487 31.0082 138.414 31.0923 137.194 31.0923C136.646 31.0923 136.163 31.0608 135.742 30.9976C135.321 30.9345 134.848 30.7978 134.322 30.5874C133.796 30.3559 133.364 30.0509 133.028 29.6722C132.691 29.2934 132.397 28.7464 132.144 28.0311C131.913 27.3157 131.797 26.4742 131.797 25.5064V19.447H129.398V15.6284H131.797V11.1154H136.625V15.6284H140.065V19.447H136.625V24.4965C136.625 25.5274 136.804 26.2217 137.162 26.5794C137.52 26.916 138.046 27.0843 138.74 27.0843ZM160.108 15.6284H164.905V37.1517H160.076V29.5144H160.108V28.6938C159.687 29.4512 159.035 30.0719 158.151 30.5558C157.289 31.0187 156.331 31.2501 155.279 31.2501C153.07 31.2501 151.324 30.5032 150.041 29.0094C148.757 27.5156 148.115 25.5905 148.115 23.2341C148.115 20.9198 148.778 19.0052 150.104 17.4904C151.429 15.9755 153.175 15.2181 155.342 15.2181C156.415 15.2181 157.373 15.4495 158.214 15.9124C159.056 16.3753 159.687 17.0065 160.108 17.806V15.6284ZM156.668 27.2421C157.825 27.2421 158.719 26.8634 159.35 26.106C159.982 25.3486 160.297 24.3913 160.297 23.2341C160.297 22.098 159.982 21.1512 159.35 20.3938C158.719 19.6364 157.825 19.2577 156.668 19.2577C155.574 19.2577 154.69 19.6259 154.017 20.3622C153.365 21.0986 153.039 22.0559 153.039 23.2341C153.039 24.4123 153.365 25.3801 154.017 26.1375C154.69 26.8739 155.574 27.2421 156.668 27.2421Z" fill="#0D114F"/>
<path d="M146.426 30.2402C145.837 30.8504 145.101 31.1554 144.217 31.1554C143.333 31.1554 142.587 30.8504 141.976 30.2402C141.387 29.6301 141.093 28.9042 141.093 28.0626C141.093 27.2 141.387 26.4742 141.976 25.8851C142.587 25.2749 143.333 24.9699 144.217 24.9699C145.101 24.9699 145.837 25.2749 146.426 25.8851C147.036 26.4742 147.341 27.2 147.341 28.0626C147.341 28.9042 147.036 29.6301 146.426 30.2402Z" fill="url(#paint0_linear_10902_622)"/>
<rect x="0.267944" y="0.839844" width="43.6315" height="43.6315" rx="7.85367" fill="url(#paint1_linear_10902_622)"/>
<g filter="url(#filter0_di_10902_622)">
<path d="M33.3738 33.1046H29.4824C29.3196 33.1046 29.1858 32.9776 29.1713 32.8155C29.1668 32.7642 29.1619 32.7145 29.1566 32.6662C28.9335 30.6327 26.7445 28.8862 24.7139 29.1336C23.2316 29.3142 22.0031 30.4332 20.5193 30.6007C19.5187 30.7136 18.6456 30.6622 17.6476 30.4666C16.7729 30.2952 15.9286 29.9816 15.1515 29.5451C13.3211 28.5171 12.3384 27.4585 11.4273 25.8635C10.9 24.9405 10.5238 23.9296 10.3869 22.8753C10.2736 22.0028 10.2808 21.2341 10.3759 20.3873C10.5212 19.0939 10.9357 17.8349 11.6122 16.7229C12.5618 15.1617 13.5883 14.1911 15.2606 13.2824C15.9689 12.8976 16.7309 12.6162 17.5183 12.4433C19.5119 12.0055 20.8025 12.1338 22.7405 12.7412C23.8187 13.0791 24.9898 13.8032 25.9859 14.7482C28.164 16.8146 28.3301 20.0574 28.3851 23.0592C28.3902 23.3375 28.1359 23.548 27.862 23.4984C26.5169 23.2552 25.5498 23.2357 24.2281 23.4458C23.8737 23.5021 23.5822 23.1354 23.6778 22.7895C23.7193 22.6395 23.7517 22.4921 23.7762 22.3469C24.1669 20.0228 22.5765 17.3699 20.2309 17.1413C18.9003 17.0116 17.5827 17.5549 16.6066 18.6444C16.0241 19.1936 15.7019 20.055 15.6003 20.9735C15.3369 23.3536 17.2838 25.6553 19.6758 25.7691C20.1322 25.7909 20.5728 25.7245 21.0231 25.5719C22.442 25.0909 23.825 24.3721 25.319 24.4846C29.8133 24.823 32.9699 26.8492 33.8004 32.6156C33.8377 32.8741 33.6349 33.1046 33.3738 33.1046Z" fill="#FAFAFA"/>
</g>
<defs>
<filter id="filter0_di_10902_622" x="8.67833" y="12.1841" width="26.7514" height="24.1703" filterUnits="userSpaceOnUse" color-interpolation-filters="sRGB">
<feFlood flood-opacity="0" result="BackgroundImageFix"/>
<feColorMatrix in="SourceAlpha" type="matrix" values="0 0 0 0 0 0 0 0 0 0 0 0 0 0 0 0 0 0 127 0" result="hardAlpha"/>
<feOffset dy="1.6249"/>
<feGaussianBlur stdDeviation="0.812448"/>
<feColorMatrix type="matrix" values="0 0 0 0 0 0 0 0 0 0 0 0 0 0 0 0 0 0 0.07 0"/>
<feBlend mode="normal" in2="BackgroundImageFix" result="effect1_dropShadow_10902_622"/>
<feBlend mode="normal" in="SourceGraphic" in2="effect1_dropShadow_10902_622" result="shape"/>
<feColorMatrix in="SourceAlpha" type="matrix" values="0 0 0 0 0 0 0 0 0 0 0 0 0 0 0 0 0 0 127 0" result="hardAlpha"/>
<feOffset dy="1.6249"/>
<feGaussianBlur stdDeviation="1.01556"/>
<feComposite in2="hardAlpha" operator="arithmetic" k2="-1" k3="1"/>
<feColorMatrix type="matrix" values="0 0 0 0 0.219608 0 0 0 0 0.533333 0 0 0 0 1 0 0 0 0.13 0"/>
<feBlend mode="normal" in2="shape" result="effect2_innerShadow_10902_622"/>
</filter>
<linearGradient id="paint0_linear_10902_622" x1="189.437" y1="-58.1893" x2="177.838" y2="54.9735" gradientUnits="userSpaceOnUse">
<stop stop-color="#5498FF"/>
<stop offset="0.515625" stop-color="#428EFF"/>
<stop offset="1" stop-color="#297FFF"/>
</linearGradient>
<linearGradient id="paint1_linear_10902_622" x1="52.4909" y1="-65.1645" x2="19.7911" y2="49.1559" gradientUnits="userSpaceOnUse">
<stop stop-color="#5498FF"/>
<stop offset="0.515625" stop-color="#428EFF"/>
<stop offset="1" stop-color="#297FFF"/>
</linearGradient>
</defs>
</svg>
