<svg width="25" height="24" viewBox="0 0 25 24" fill="none" xmlns="http://www.w3.org/2000/svg">
<path d="M3.27344 6.02588H5.25518H21.1091" stroke="#E83F5B" stroke-width="1.98174" stroke-linecap="round" stroke-linejoin="round"/>
<path d="M8.22774 6.02549V4.04375C8.22774 3.51816 8.43653 3.0141 8.80818 2.64245C9.17982 2.2708 9.68389 2.06201 10.2095 2.06201H14.173C14.6985 2.06201 15.2026 2.2708 15.5743 2.64245C15.9459 3.0141 16.1547 3.51816 16.1547 4.04375V6.02549M19.1273 6.02549V19.8977C19.1273 20.4233 18.9185 20.9273 18.5469 21.299C18.1752 21.6706 17.6712 21.8794 17.1456 21.8794H7.23687C6.71128 21.8794 6.20721 21.6706 5.83557 21.299C5.46392 20.9273 5.25513 20.4233 5.25513 19.8977V6.02549H19.1273Z" stroke="#E83F5B" stroke-width="1.98174" stroke-linecap="round" stroke-linejoin="round"/>
</svg>
