<svg width="15" height="19" viewBox="0 0 15 19" fill="none" xmlns="http://www.w3.org/2000/svg">
<path d="M12.3435 6.66748H11.514V5.00844C11.514 2.71897 9.65586 0.86084 7.36639 0.86084C5.07691 0.86084 3.21879 2.71897 3.21879 5.00844V6.66748H2.38927C1.47679 6.66748 0.730225 7.41405 0.730225 8.32652V16.6217C0.730225 17.5342 1.47679 18.2808 2.38927 18.2808H12.3435C13.256 18.2808 14.0026 17.5342 14.0026 16.6217V8.32652C14.0026 7.41405 13.256 6.66748 12.3435 6.66748ZM7.36639 14.1332C6.45392 14.1332 5.70735 13.3866 5.70735 12.4741C5.70735 11.5617 6.45392 10.8151 7.36639 10.8151C8.27886 10.8151 9.02543 11.5617 9.02543 12.4741C9.02543 13.3866 8.27886 14.1332 7.36639 14.1332ZM9.9379 6.66748H4.79487V5.00844C4.79487 3.58996 5.94791 2.43693 7.36639 2.43693C8.78487 2.43693 9.9379 3.58996 9.9379 5.00844V6.66748Z" fill="#A5B0C1"/>
</svg>
